<svg width="80" height="80" viewBox="0 0 80 80" fill="none" xmlns="http://www.w3.org/2000/svg">
<g clip-path="url(#clip0_2710_10562)">
<path d="M61.2498 29.6665H21.2998V57.1498H61.2498V29.6665Z" fill="#FFE6E1"/>
<path d="M61.2663 57.8664H21.2997C20.8997 57.8664 20.583 57.5497 20.583 57.1497V29.6664C20.583 29.2664 20.8997 28.9497 21.2997 28.9497H61.2497C61.6497 28.9497 61.9663 29.2664 61.9663 29.6664V57.1497C61.9663 57.5497 61.6497 57.8664 61.2497 57.8664H61.2663ZM22.0163 56.4497H60.5497V30.383H22.0163V56.4497Z" fill="#1C2575"/>
<path d="M44.0667 28.8833H38.4834V57.8666H44.0667V28.8833Z" fill="#FF5C35"/>
<path d="M19.633 40.1165L23.633 34.9165L27.7163 40.0665L33.9996 38.2165L34.283 44.7665L40.4496 46.9832L36.833 52.4332L40.5163 57.8498L34.383 60.1498L34.183 66.6998L27.8663 64.9332L23.8663 70.1165L19.783 64.9832L13.483 66.8332L13.2163 60.2832L7.03298 58.0665L10.6663 52.5998L6.96631 47.1832L13.1163 44.8998L13.3163 38.3498L19.633 40.1165Z" fill="#FFBC00"/>
<path d="M53.6163 20.6829C53.033 22.4329 46.683 20.2996 47.2663 18.5496C47.8497 16.7996 49.7497 15.8496 51.5163 16.4496C53.283 17.0496 54.2163 18.9329 53.6163 20.6996V20.6829Z" fill="#FF5C35"/>
<path d="M50.2666 19.5331L44.7499 11.3498C43.5166 9.5331 40.8832 9.36644 39.4499 11.0331C37.8999 12.8331 38.6666 15.6164 40.9166 16.3831L50.2666 19.5331Z" fill="#FF5C35"/>
<path d="M50.2666 19.5329L59.6166 16.3662C61.6999 15.6662 63.8833 17.1329 64.0166 19.3162C64.1666 21.6829 61.8666 23.4329 59.6166 22.6829L50.2666 19.5329Z" fill="#FF5C35"/>
<path d="M72.6296 27.0681L27.916 12.0029L25.2553 19.9001L69.9689 34.9652L72.6296 27.0681Z" fill="#FFE6E1"/>
<path d="M69.9664 35.6665C69.9664 35.6665 69.8164 35.6665 69.733 35.6332L25.033 20.5665C24.6664 20.4332 24.4664 20.0332 24.583 19.6665L27.2497 11.7665C27.3164 11.5832 27.433 11.4332 27.5997 11.3499C27.7664 11.2665 27.9664 11.2499 28.1497 11.3165L72.8664 26.3832C73.2331 26.5165 73.4331 26.9165 73.3164 27.2832L70.6497 35.1832C70.583 35.3665 70.4664 35.5165 70.2997 35.5999C70.1997 35.6499 70.0997 35.6665 69.9831 35.6665H69.9664ZM26.1497 19.4499L69.5164 34.0665L71.7164 27.5165L28.3664 12.8999L26.1664 19.4499H26.1497Z" fill="#1C2575"/>
<path d="M53.168 19.6372L47.877 17.8545L44.7 27.2837L49.9911 29.0664L53.168 19.6372Z" fill="#FF5C35"/>
<path d="M20.6165 24.0829C20.5332 24.0829 20.4332 24.0829 20.3499 24.0329L10.2332 19.9663C9.86654 19.8163 9.69987 19.3996 9.83321 19.0496C9.98321 18.6829 10.3999 18.5163 10.7499 18.6496L20.8665 22.7163C21.2332 22.8663 21.3999 23.2829 21.2665 23.6329C21.1499 23.9163 20.8832 24.0829 20.5999 24.0829H20.6165Z" fill="#FF5C35"/>
<path d="M13.1498 29.8167C12.8664 29.8167 12.5998 29.65 12.4998 29.3833C12.3498 29.0167 12.5164 28.6 12.8831 28.45L19.8331 25.5667C20.1998 25.4167 20.6164 25.5833 20.7664 25.95C20.9164 26.3167 20.7498 26.7333 20.3831 26.8833L13.4331 29.7667C13.3498 29.8 13.2498 29.8167 13.1664 29.8167H13.1498Z" fill="#FF5C35"/>
<path d="M21.2332 21.0998C20.9832 21.0998 20.7332 20.9664 20.5999 20.7164L18.3332 16.4498C18.1499 16.0998 18.2832 15.6664 18.6332 15.4831C18.9832 15.2998 19.4165 15.4331 19.5999 15.7831L21.8665 20.0498C22.0499 20.3998 21.9165 20.8331 21.5665 21.0164C21.4665 21.0664 21.3499 21.0998 21.2332 21.0998Z" fill="#FF5C35"/>
<path d="M18.3165 51.0666C19.7801 51.0666 20.9665 49.8802 20.9665 48.4166C20.9665 46.953 19.7801 45.7666 18.3165 45.7666C16.8529 45.7666 15.6665 46.953 15.6665 48.4166C15.6665 49.8802 16.8529 51.0666 18.3165 51.0666Z" fill="#1C2575"/>
<path d="M29.1832 59.2834C30.6468 59.2834 31.8332 58.097 31.8332 56.6334C31.8332 55.1698 30.6468 53.9834 29.1832 53.9834C27.7196 53.9834 26.5332 55.1698 26.5332 56.6334C26.5332 58.097 27.7196 59.2834 29.1832 59.2834Z" fill="#1C2575"/>
<path d="M25.9166 46.1L17.7499 58.0667C17.3999 58.5833 17.7666 59.2833 18.3999 59.2833H20.6832C20.9332 59.2833 21.1832 59.15 21.3332 58.95L29.6166 46.9833C29.9832 46.4667 29.6166 45.75 28.9666 45.75H26.5666C26.2999 45.75 26.0666 45.8833 25.9166 46.0833V46.1Z" fill="#1C2575"/>
</g>
<defs>
<clipPath id="clip0_2710_10562">
<rect width="66.6667" height="66.6667" fill="white" transform="translate(6.6665 6.6665)"/>
</clipPath>
</defs>
</svg>
