<svg width="72" height="72" viewBox="0 0 72 72" fill="none" xmlns="http://www.w3.org/2000/svg">
<g clip-path="url(#clip0_206_25337)">
<path d="M46.4748 41.5006C46.4391 40.6641 46.2483 38.3361 46.1966 37.593C45.9595 34.2719 46.5996 31.9615 47.739 30.477C48.8784 28.9925 51.7224 26.9076 54.1171 28.6879C55.2993 29.5684 55.7308 31.3522 54.1777 33.8035C52.6246 36.2547 53.0455 38.9578 53.5126 41.409C55.7433 54.7024 46.0647 61.5191 39.8684 62.632C31.2757 64.1746 18.778 60.3181 18.0345 45.0912L18.0577 45.4046L16.9147 29.3905C16.7507 27.0925 17.4835 24.6166 19.7944 24.3612C21.8735 24.1305 23.1074 26.6487 23.2714 28.9467L23.9508 38.4436L23.3909 30.5968L22.4869 17.939C22.3175 15.5653 23.398 12.9679 25.8765 12.7354C28.4103 12.4977 29.7137 15.0493 29.8831 17.4231L30.9494 32.3049L29.5764 13.0982C29.407 10.7244 30.8638 8.08651 32.9661 7.89456C35.4571 7.66916 36.8033 10.2085 36.9727 12.5822L38.3457 31.7889L37.4345 18.9569C37.2651 16.5831 38.3528 13.9293 40.8242 13.7533C43.4524 13.5666 44.6614 16.0671 44.8308 18.4409L46.4783 41.5006H46.4748Z" fill="#FCDBDB"/>
<path d="M36.2096 63.8402C31.7019 63.8402 27.328 62.4332 24.0097 59.8287C19.8301 56.5498 17.4568 51.4713 17.1466 45.1442L16.025 29.4523C15.7861 26.1012 17.2268 23.7592 19.6946 23.4862C20.538 23.3929 21.3457 23.6271 22.0358 24.1642L21.5954 17.9991C21.3921 15.1622 22.7686 12.1404 25.7892 11.8569C26.8591 11.7565 27.854 12.0524 28.6689 12.7145C28.6742 10.1135 30.3129 7.24848 32.8805 7.01427C33.9611 6.91566 34.9668 7.23087 35.7923 7.92292C36.9496 8.89497 37.7216 10.6119 37.8589 12.5172L37.982 14.2395C38.6667 13.4734 39.5903 12.9557 40.7565 12.873C41.8869 12.792 42.9193 13.1213 43.7396 13.8221C44.8576 14.7801 45.5779 16.4389 45.717 18.3759L46.5889 30.5864C46.7245 30.361 46.8724 30.1479 47.0294 29.9436C48.4719 28.0664 51.817 25.8741 54.6556 27.9837C56.0554 29.0244 56.8649 31.2238 54.9356 34.2703C53.6036 36.3729 53.9014 38.6727 54.3917 41.2472C54.3917 41.2542 54.3935 41.2595 54.3953 41.2665C55.6934 49.0042 53.017 54.1743 50.5438 57.1486C47.3254 61.0174 43.0031 62.9668 40.0325 63.5003C38.763 63.7275 37.4827 63.8402 36.2131 63.8402H36.2096ZM18.9493 45.4506C19.3095 51.1472 21.385 55.5197 25.1188 58.4499C29.6585 62.0123 35.6336 62.4983 39.7098 61.7675C42.3701 61.2903 46.2502 59.5329 49.1619 56.0321C51.4015 53.3396 53.8194 48.6449 52.6336 41.5641C52.0951 38.7325 51.7528 35.9731 53.42 33.3387C54.5148 31.6095 54.5754 30.1338 53.5786 29.3942C51.5584 27.8921 49.1352 30.1144 48.4469 31.0125C47.3521 32.4389 46.8796 34.6929 47.0829 37.5333C47.0971 37.7358 47.1221 38.0581 47.1506 38.4367C47.2291 39.4528 47.3361 40.8457 47.3628 41.4673C47.3824 41.948 47.008 42.3566 46.5212 42.383C46.0344 42.4094 45.6172 42.0466 45.5815 41.5659L43.9339 18.5062C43.8305 17.0535 43.3188 15.8032 42.5663 15.1587C42.0991 14.7589 41.5481 14.5864 40.8795 14.6339C39.0251 14.766 38.1745 16.9284 38.3154 18.8972L39.2266 31.731C39.2604 32.2153 38.8913 32.6361 38.3992 32.6713C37.9089 32.7048 37.4827 32.3403 37.447 31.8543V31.8472L36.0741 12.6476C35.9724 11.2265 35.4197 9.93217 34.6315 9.27005C34.1679 8.88088 33.6473 8.71887 33.0375 8.77346C31.5628 8.90729 30.3093 10.9799 30.4555 13.0385L31.8285 32.2452C31.8624 32.7294 31.4933 33.1521 31.0012 33.1855C30.5108 33.219 30.0829 32.8545 30.049 32.3702L28.9827 17.4884C28.8793 16.0497 28.3319 14.7537 27.5545 14.1021C27.0944 13.7165 26.5684 13.558 25.9497 13.6161C23.8438 13.8133 23.2501 16.2751 23.3642 17.8811L24.1505 28.8818C24.1505 28.8818 24.1505 28.8871 24.1505 28.8906L24.8299 38.3874C24.8638 38.8716 24.4947 39.2943 24.0025 39.3277C23.5122 39.363 23.0843 38.9967 23.0504 38.5107L22.371 29.0068C22.2658 27.5663 21.7006 26.1928 20.9606 25.5835C20.6272 25.3088 20.2741 25.1961 19.8818 25.2401C18.1362 25.4338 17.6654 27.5646 17.792 29.3326L18.9136 45.0315C18.9136 45.0315 18.9136 45.0332 18.9136 45.035L18.9368 45.3484C18.9386 45.3836 18.9404 45.4189 18.9368 45.4541L18.9493 45.4506Z" fill="black"/>
<path d="M46.4267 41.5006C46.391 40.6641 46.2002 38.3361 46.1485 37.593C45.9113 34.2719 46.5515 31.9615 47.6909 30.477C48.8303 28.9925 51.6743 26.9076 54.069 28.6879C55.2512 29.5684 55.6827 31.3522 54.1296 33.8034C52.5765 36.2547 52.9973 38.9577 53.4645 41.409C55.6952 54.7024 46.0165 61.5191 39.8203 62.632" fill="#FCDBDB"/>
<path d="M39.9808 63.5001L39.6616 61.7674C42.322 61.2901 46.202 59.5327 49.1138 56.0319C51.3533 53.3394 53.7712 48.6447 52.5855 41.564C52.047 38.7324 51.7046 35.9729 53.3718 33.3386C54.4666 31.6093 54.5272 30.1336 53.5305 29.394C51.5103 27.8919 49.087 30.1143 48.3988 31.0123C47.3039 32.4387 46.8314 34.6927 47.0347 37.5331C47.049 37.7357 47.0739 38.0561 47.1025 38.433C47.1809 39.4508 47.2879 40.8437 47.3146 41.4671L45.5333 41.5411C45.5084 40.9494 45.4014 39.5723 45.3247 38.5686C45.2962 38.1882 45.2712 37.8642 45.2552 37.6599C45.018 34.3405 45.5975 31.7467 46.9776 29.9505C48.4202 28.0733 51.7652 25.8809 54.6039 27.9905C56.0036 29.0313 56.8132 31.2307 54.8839 34.2771C53.5519 36.3797 53.8497 38.6795 54.34 41.254C54.34 41.2611 54.3418 41.2664 54.3436 41.2734C55.6417 49.011 52.9653 54.1812 50.4921 57.1554C47.2736 61.0242 42.9514 62.9736 39.9808 63.5072V63.5001Z" fill="black"/>
<path d="M34.2375 34.978L51.3016 32.3841C55.6203 31.7273 58.8494 28.1209 58.9796 23.8065C59.1472 18.2331 54.1688 13.8677 48.5842 14.6918L31.5004 17.2153C26.1173 18.0112 22.6527 23.2818 24.1131 28.4625L24.1327 28.5329C25.363 32.8983 29.7031 35.6665 34.2375 34.978Z" fill="#FFD400"/>
<path d="M32.8538 35.9624C28.4531 35.9624 24.4839 33.0709 23.2732 28.7689L23.2536 28.6985C22.4904 25.9866 22.9416 23.0775 24.4929 20.7161C26.0441 18.3546 28.5494 16.761 31.3685 16.3454L48.4522 13.8219C51.3765 13.3905 54.3204 14.2534 56.5314 16.1922C58.7424 18.131 59.9585 20.915 59.8711 23.8329C59.7285 28.5717 56.1819 32.532 51.4389 33.254L34.3747 35.8479C33.8648 35.9254 33.3584 35.9624 32.8555 35.9624H32.8538ZM49.9322 15.4737C49.5292 15.4737 49.1227 15.5036 48.7161 15.5635L31.6323 18.087C29.3179 18.4286 27.262 19.737 25.9889 21.674C24.7157 23.6128 24.3449 26.0007 24.9725 28.2265L24.9921 28.297C26.0994 32.2309 30.0169 34.7279 34.1037 34.1063L51.1679 31.5125C55.0621 30.9208 57.9721 27.6683 58.0898 23.7801C58.1612 21.3852 57.1626 19.0995 55.3474 17.5076C53.8407 16.1851 51.9168 15.4719 49.9322 15.4719V15.4737Z" fill="black"/>
<path d="M46.4267 41.5006C46.391 40.6641 46.2002 38.3361 46.1485 37.593C45.9113 34.2719 46.5515 31.9615 47.6909 30.477C48.8303 28.9925 51.6743 26.9076 54.069 28.6879C55.2512 29.5684 55.6827 31.3522 54.1296 33.8035C52.5765 36.2547 52.9973 38.9578 53.4645 41.409C55.6952 54.7024 46.0165 61.5191 39.8203 62.632" fill="#FCDBDB"/>
<path d="M39.8203 63.5142C39.3977 63.5142 39.0233 63.2166 38.9448 62.7905C38.8574 62.3115 39.1784 61.8537 39.6616 61.7674C42.322 61.2902 46.202 59.5327 49.1138 56.0319C51.3533 53.3395 53.7712 48.6448 52.5855 41.564C52.047 38.7324 51.7046 35.9729 53.3718 33.3386C54.4666 31.6093 54.5272 30.1336 53.5305 29.394C51.5103 27.8919 49.087 30.1143 48.3988 31.0123C47.3039 32.4387 46.8314 34.6927 47.0347 37.5331C47.049 37.7357 47.0739 38.0562 47.1025 38.433C47.1809 39.4508 47.2879 40.8437 47.3146 41.4671C47.3343 41.9531 46.9527 42.3634 46.4605 42.3828C45.9702 42.4039 45.553 42.0253 45.5333 41.5393C45.5084 40.9476 45.4014 39.5706 45.3247 38.5668C45.2962 38.1865 45.2712 37.8624 45.2552 37.6582C45.018 34.3388 45.5975 31.7449 46.9776 29.9487C48.4202 28.0716 51.7652 25.8792 54.6039 27.9888C56.0036 29.0295 56.8132 31.2289 54.8839 34.2754C53.5519 36.378 53.8497 38.6778 54.34 41.2523C54.34 41.2593 54.3418 41.2646 54.3436 41.2716C55.6417 49.0093 52.9653 54.1794 50.4921 57.1537C47.2736 61.0225 42.9514 62.9719 39.9808 63.5054C39.9273 63.5142 39.8738 63.5195 39.8203 63.5195V63.5142Z" fill="black"/>
<path d="M35.3483 34.9164L39.2176 41.1801L46.6353 41.5833L41.7977 47.1515L43.7021 54.2446L36.8443 51.4218L30.6035 55.4015L31.2008 48.0883L25.4415 43.457L32.6683 41.7577L35.3483 34.9164Z" fill="#FFD400"/>
<path d="M30.6035 56.282C30.4448 56.282 30.2861 56.2397 30.1453 56.157C29.8546 55.9844 29.687 55.6639 29.7138 55.3311L30.2737 48.4792L24.8763 44.1385C24.6124 43.9272 24.4947 43.5855 24.5696 43.2598C24.6444 42.9322 24.903 42.6769 25.2329 42.5994L32.0033 41.0093L34.5156 34.5994C34.6387 34.2877 34.9293 34.0694 35.2681 34.0394C35.6069 34.0095 35.9314 34.1715 36.1079 34.4585L39.733 40.326L46.6817 40.7046C47.0204 40.7222 47.32 40.93 47.452 41.2382C47.5839 41.5464 47.5304 41.9021 47.3093 42.1574L42.7785 47.3751L44.5616 54.0192C44.6489 54.3432 44.542 54.6883 44.2852 54.9085C44.0302 55.1286 43.67 55.1867 43.3562 55.0581L36.9317 52.415L31.085 56.1429C30.9388 56.2362 30.7694 56.2838 30.6018 56.2838L30.6035 56.282ZM27.4047 43.9008L31.7643 47.4068C31.9926 47.5899 32.1138 47.8717 32.0906 48.1605L31.6377 53.6952L36.3611 50.6839C36.6072 50.5272 36.9175 50.499 37.1885 50.6117L42.3791 52.7478L40.9383 47.3804C40.8634 47.1004 40.933 46.801 41.1238 46.5809L44.7844 42.367L39.1713 42.0606C38.8789 42.0447 38.6114 41.888 38.4598 41.6397L35.532 36.8992L33.5028 42.0782C33.3976 42.3476 33.1623 42.5501 32.877 42.617L27.4065 43.9025L27.4047 43.9008Z" fill="black"/>
<path d="M36.5234 23.4737C37.5362 24.569 38.1496 25.578 38.3635 26.4973C38.5721 27.4006 38.5365 28.149 38.2548 28.7407C37.973 29.3324 37.4862 29.7075 36.7944 29.8624C35.9136 30.0614 35.2342 29.9029 34.7545 29.3887C34.5227 30.0632 33.9379 30.5052 32.9964 30.7183C32.5596 30.8169 32.1495 30.7781 31.7625 30.6038C31.3756 30.4295 31.0475 30.1671 30.7783 29.8202C30.509 29.4715 30.3271 29.0947 30.2326 28.6896C30.1025 28.1244 30.0632 27.5996 30.1185 27.1154C30.1738 26.6329 30.32 26.101 30.5607 25.5235C30.7997 24.9459 31.1937 24.127 31.7411 23.0704C31.5628 22.9595 31.3025 22.831 30.9637 22.6866L32.046 20.1895C34.0163 21.2831 35.5088 22.3766 36.5234 23.4719V23.4737ZM35.9617 26.5589C35.9153 26.3564 35.7745 26.094 35.5373 25.7753C35.302 25.4548 35.0006 25.1343 34.6333 24.812C34.266 24.4898 33.8791 24.2239 33.4707 24.0143C32.9447 24.9688 32.5917 25.659 32.4116 26.0852C32.2315 26.5131 32.1637 26.823 32.2083 27.0167C32.2903 27.3707 32.4972 27.5116 32.8324 27.4358C33.0891 27.3777 33.3174 27.3003 33.5207 27.1999L33.3655 26.529L34.726 26.168L34.9025 26.9287C35.0541 26.9216 35.2199 26.897 35.3982 26.8565C35.6372 26.8019 35.8262 26.7015 35.9635 26.5554L35.9617 26.5589Z" fill="black"/>
<path d="M41.5 27.9817C40.9383 27.8109 40.4569 27.5151 40.0539 27.0942C39.6509 26.6751 39.3817 26.1732 39.2479 25.5904C39.1142 25.0075 39.1356 24.4405 39.3139 23.8893C39.4922 23.3381 39.7971 22.8644 40.2269 22.47C40.6584 22.0755 41.1719 21.8096 41.771 21.6758C42.3701 21.5402 42.9496 21.5595 43.5113 21.7304C44.073 21.9012 44.5544 22.197 44.9574 22.6179C45.3604 23.0387 45.6296 23.5389 45.7634 24.1217C45.8971 24.7046 45.8757 25.2716 45.6974 25.8228C45.5191 26.374 45.2142 26.8477 44.7844 27.2421C44.3529 27.6366 43.8394 27.9025 43.2403 28.0363C42.6412 28.1719 42.0617 28.1525 41.5 27.9817ZM43.4578 25.4213C43.6165 25.1765 43.6629 24.9071 43.5951 24.6113C43.5274 24.3154 43.3669 24.0918 43.1155 23.9404C42.8641 23.7889 42.5805 23.7484 42.2649 23.8188C41.9565 23.8875 41.7229 24.046 41.5642 24.2908C41.4055 24.5356 41.3591 24.805 41.4287 25.1008C41.4964 25.3967 41.6569 25.6203 41.9083 25.7717C42.1597 25.9232 42.4397 25.9654 42.7464 25.895C43.062 25.8228 43.3009 25.6661 43.4596 25.4213H43.4578Z" fill="black"/>
<path d="M48.6841 26.3617C48.1224 26.1909 47.641 25.895 47.238 25.4741C46.835 25.055 46.5658 24.5532 46.432 23.9703C46.2983 23.3874 46.3197 22.8204 46.498 22.2692C46.6763 21.718 46.9812 21.2443 47.4109 20.8499C47.8407 20.4554 48.356 20.1895 48.9551 20.0557C49.5542 19.9201 50.1337 19.9395 50.6954 20.1103C51.2571 20.2811 51.7385 20.5769 52.1415 20.9978C52.5445 21.4187 52.8137 21.9188 52.9474 22.5017C53.0812 23.0845 53.0598 23.6516 52.8815 24.2027C52.7032 24.7539 52.3982 25.2276 51.9685 25.6221C51.5388 26.0165 51.0235 26.2824 50.4244 26.4163C49.8252 26.5518 49.2457 26.5325 48.6841 26.3617ZM50.6419 23.8012C50.8006 23.5565 50.847 23.287 50.7792 22.9912C50.7114 22.6954 50.551 22.4717 50.2995 22.3203C50.0481 22.1688 49.7646 22.1283 49.449 22.1988C49.1405 22.2675 48.907 22.4259 48.7483 22.6707C48.5896 22.9155 48.5432 23.1849 48.611 23.4807C48.6787 23.7766 48.8392 24.0002 49.0906 24.1517C49.342 24.3031 49.622 24.3454 49.9287 24.2749C50.2443 24.2027 50.4832 24.046 50.6419 23.8012Z" fill="black"/>
</g>
<defs>
<clipPath id="clip0_206_25337">
<rect width="43.8765" height="56.84" fill="white" transform="translate(16 7)"/>
</clipPath>
</defs>
</svg>
