<svg width="40" height="40" viewBox="0 0 40 40" fill="none" xmlns="http://www.w3.org/2000/svg">
<g clip-path="url(#clip0_2698_242240)">
<path d="M9.28594 15.7173H3.33594V9.76725C3.33594 8.85059 4.08594 8.10059 5.0026 8.10059C5.91927 8.10059 6.66927 8.85059 6.66927 9.76725V12.3839H9.28594C10.2026 12.3839 10.9526 13.1339 10.9526 14.0506C10.9526 14.9673 10.2026 15.7173 9.28594 15.7173Z" fill="#868590"/>
<path d="M15.1214 33.8173C10.2547 33.8173 5.8047 31.1339 3.53804 26.8339C3.1047 26.0173 3.42137 25.0173 4.23804 24.5839C5.0547 24.1506 6.0547 24.4673 6.48804 25.2839C8.18804 28.5006 11.488 30.5006 15.1214 30.5006C18.1047 30.5006 20.8714 29.1673 22.738 26.8339C23.3214 26.1173 24.3714 26.0006 25.088 26.5839C25.8047 27.1673 25.9214 28.2173 25.338 28.9339C22.838 32.0506 19.1047 33.8339 15.1214 33.8339V33.8173Z" fill="#868590"/>
<path d="M6.0883 14.2837C5.72164 14.2837 5.35497 14.1671 5.05497 13.9171C4.3383 13.3337 4.22164 12.3004 4.7883 11.5671C7.2883 8.45039 11.0216 6.65039 15.005 6.65039C18.6383 6.65039 22.005 8.10039 24.505 10.7337C25.1383 11.4004 25.105 12.4504 24.4383 13.0837C23.7716 13.7171 22.7216 13.6837 22.0883 13.0171C20.2216 11.0504 17.705 9.96706 15.005 9.96706C12.0216 9.96706 9.25497 11.3004 7.3883 13.6337C7.05497 14.0504 6.57164 14.2671 6.0883 14.2671V14.2837Z" fill="#868590"/>
<path d="M36.6693 15.6667V14.5C36.6693 12.5667 35.1026 11 33.1693 11H16.8359C14.9026 11 13.3359 12.5667 13.3359 14.5V15.6667H36.6693Z" fill="#CFCED3"/>
<path d="M13.3359 18V25C13.3359 26.9333 14.9026 28.5 16.8359 28.5H33.1693C35.1026 28.5 36.6693 26.9333 36.6693 25V18H13.3359ZM32.0026 25H27.3359C26.6859 25 26.1693 24.4833 26.1693 23.8333C26.1693 23.1833 26.6859 22.6667 27.3359 22.6667H32.0026C32.6526 22.6667 33.1693 23.1833 33.1693 23.8333C33.1693 24.4833 32.6526 25 32.0026 25Z" fill="#CFCED3"/>
<path d="M36.6693 15.667H13.3359V18.0003H36.6693V15.667Z" fill="#868590"/>
<path d="M31.9974 25.0003H27.3307C26.6807 25.0003 26.1641 24.4837 26.1641 23.8337C26.1641 23.1837 26.6807 22.667 27.3307 22.667H31.9974C32.6474 22.667 33.1641 23.1837 33.1641 23.8337C33.1641 24.4837 32.6474 25.0003 31.9974 25.0003Z" fill="#868590"/>
</g>
<defs>
<clipPath id="clip0_2698_242240">
<rect width="40" height="40" fill="white"/>
</clipPath>
</defs>
</svg>
