<svg width="40" height="40" viewBox="0 0 40 40" fill="none" xmlns="http://www.w3.org/2000/svg">
<g clip-path="url(#clip0_2698_242253)">
<path d="M36.6667 36.668L27.8333 31.668H15C12.1667 31.668 10 29.5013 10 26.668V16.668C10 13.8346 12.1667 11.668 15 11.668H31.6667C34.5 11.668 36.6667 13.8346 36.6667 16.668V36.668Z" fill="#CFCED3"/>
<path d="M3.33594 30V10C3.33594 7.16667 5.5026 5 8.33594 5H25.0026C27.8359 5 30.0026 7.16667 30.0026 10V20C30.0026 22.8333 27.8359 25 25.0026 25H12.1693L3.33594 30ZM8.33594 8.33333C7.33594 8.33333 6.66927 9 6.66927 10V24.3333L11.1693 21.6667H25.0026C26.0026 21.6667 26.6693 21 26.6693 20V10C26.6693 9 26.0026 8.33333 25.0026 8.33333H8.33594Z" fill="#868590"/>
</g>
<defs>
<clipPath id="clip0_2698_242253">
<rect width="40" height="40" fill="white"/>
</clipPath>
</defs>
</svg>
